HIERARCHY
ROOT Hips
{
	OFFSET 0.00000 0.00000 0.00000
	CHANNELS 6 Xposition Yposition Zposition Zrotation Yrotation Xrotation 
	JOINT LHipJoint
	{
		OFFSET 0 0 0
		CHANNELS 3 Zrotation Yrotation Xrotation
		JOINT LeftUpLeg
		{
			OFFSET 1.76014 -1.80163 0.38499
			CHANNELS 3 Zrotation Yrotation Xrotation
			JOINT LeftLeg
			{
				OFFSET 2.46817 -6.78126 0.00000
				CHANNELS 3 Zrotation Yrotation Xrotation
				JOINT LeftFoot
				{
					OFFSET 2.79348 -7.67503 0.00000
					CHANNELS 3 Zrotation Yrotation Xrotation
					JOINT LeftToeBase
					{
						OFFSET 0.09421 -0.25885 1.91403
						CHANNELS 3 Zrotation Yrotation Xrotation
						End Site
						{
							OFFSET 0.00000 -0.00000 0.97975
						}
					}
				}
			}
		}
	}
	JOINT RHipJoint
	{
		OFFSET 0 0 0
		CHANNELS 3 Zrotation Yrotation Xrotation
		JOINT RightUpLeg
		{
			OFFSET -1.77926 -1.80163 0.38499
			CHANNELS 3 Zrotation Yrotation Xrotation
			JOINT RightLeg
			{
				OFFSET -2.51996 -6.92353 0.00000
				CHANNELS 3 Zrotation Yrotation Xrotation
				JOINT RightFoot
				{
					OFFSET -2.76109 -7.58603 0.00000
					CHANNELS 3 Zrotation Yrotation Xrotation
					JOINT RightToeBase
					{
						OFFSET -0.08067 -0.22163 1.86812
						CHANNELS 3 Zrotation Yrotation Xrotation
						End Site
						{
							OFFSET -0.00000 -0.00000 0.95558
						}
					}
				}
			}
		}
	}
	JOINT LowerBack
	{
		OFFSET 0 0 0
		CHANNELS 3 Zrotation Yrotation Xrotation
		JOINT Spine
		{
			OFFSET 0.05537 1.92033 -0.03713
			CHANNELS 3 Zrotation Yrotation Xrotation
			JOINT Spine1
			{
				OFFSET 0.04452 1.90073 0.10860
				CHANNELS 3 Zrotation Yrotation Xrotation
				JOINT Neck
				{
					OFFSET 0 0 0
					CHANNELS 3 Zrotation Yrotation Xrotation
					JOINT Neck1
					{
						OFFSET 0.00903 1.74649 0.02074
						CHANNELS 3 Zrotation Yrotation Xrotation
						JOINT Head
						{
							OFFSET -0.08608 1.67844 -0.12081
							CHANNELS 3 Zrotation Yrotation Xrotation
							End Site
							{
								OFFSET -0.03521 1.83380 -0.05059
							}
						}
					}
				}
				JOINT LeftShoulder
				{
					OFFSET 0 0 0
					CHANNELS 3 Zrotation Yrotation Xrotation
					JOINT LeftArm
					{
						OFFSET 3.28197 0.84325 -0.19106
						CHANNELS 3 Zrotation Yrotation Xrotation
						JOINT LeftForeArm
						{
							OFFSET 5.24318 -0.00000 -0.00000
							CHANNELS 3 Zrotation Yrotation Xrotation
							JOINT LeftHand
							{
								OFFSET 2.98999 -0.00000 0.00000
								CHANNELS 3 Zrotation Yrotation Xrotation
								JOINT LeftFingerBase
								{
									OFFSET 0 0 0
									CHANNELS 3 Zrotation Yrotation Xrotation
									JOINT LeftHandIndex1
									{
										OFFSET 0.72674 -0.00000 0.00000
										CHANNELS 3 Zrotation Yrotation Xrotation
										End Site
										{
											OFFSET 0.58592 -0.00000 0.00000
										}
									}
								}
								JOINT LThumb
								{
									OFFSET 0 0 0
									CHANNELS 3 Zrotation Yrotation Xrotation
									End Site
									{
										OFFSET 0.59487 -0.00000 0.59487
									}
								}
							}
						}
					}
				}
				JOINT RightShoulder
				{
					OFFSET 0 0 0
					CHANNELS 3 Zrotation Yrotation Xrotation
					JOINT RightArm
					{
						OFFSET -3.30963 0.78377 0.14264
						CHANNELS 3 Zrotation Yrotation Xrotation
						JOINT RightForeArm
						{
							OFFSET -5.37045 -0.00000 0.00000
							CHANNELS 3 Zrotation Yrotation Xrotation
							JOINT RightHand
							{
								OFFSET -2.92792 -0.00000 0.00000
								CHANNELS 3 Zrotation Yrotation Xrotation
								JOINT RightFingerBase
								{
									OFFSET 0 0 0
									CHANNELS 3 Zrotation Yrotation Xrotation
									JOINT RightHandIndex1
									{
										OFFSET -0.78450 -0.00000 0.00000
										CHANNELS 3 Zrotation Yrotation Xrotation
										End Site
										{
											OFFSET -0.63248 -0.00000 0.00000
										}
									}
								}
								JOINT RThumb
								{
									OFFSET 0 0 0
									CHANNELS 3 Zrotation Yrotation Xrotation
									End Site
									{
										OFFSET -0.64214 -0.00000 0.64214
									}
								}
							}
						}
					}
				}
			}
		}
	}
}
MOTION
Frames: 7
Frame Time: .0083333
-0.0556 16.3379 -0.7821 0 0 0 0 0 0 -21 0 0 0 0 0 0 0 0 0 0 0 0 0 0 21 0 0 0 0 0 0 0 0 0 0 0 0 0 0 0 0 0 0 0 0 0 0 -16 0 0 21 0 0 11 0 0 0 -8 0 0 0 0 0 0 0 0 0 0 0 0 0 0 0 0 0 0 0 0 8 0 0 0 0 0 0 0 0 0 0 0 0 0 0 0 0 0
-0.0556 16.3379 -0.7821 -2.4241 4.2587 14.2602 0.0000 0.0000 0.0000 -7.8822 -9.6260 -49.0367 9.8250 17.3102 58.9018 1.0708 -8.9098 -18.5940 1.3544 -7.3671 -20.8075 0.0000 0.0000 0.0000 19.3997 2.4229 -50.7765 -9.3982 -17.0572 57.4573 -0.7235 8.5596 -15.4159 -0.0532 1.4889 -4.0951 3.1623 -1.8245 9.6416 3.1095 -1.8792 -0.4058 1.7508 -0.9696 -5.8397 3.7336 -0.6151 -7.2074 -5.9621 -0.5724 10.9465 -2.4823 -0.4743 4.4221 0.0000 0.0000 0.0000 -86.5215 -19.2632 44.4133 136.5698 -49.9758 -98.9704 -0.0000 -0.0000 25.4334 -0.8490 30.3496 -0.4290 -7.1250 0.0000 -0.0000 -34.8009 56.7159 -10.9009 0.0000 0.0000 0.0000 86.5302 13.8936 36.5733 -141.7438 47.0022 -102.8473 0.0000 0.0000 46.0059 16.2766 -2.0480 -0.5978 7.1250 -0.0000 -0.0000 32.6213 -30.5410 13.5991
-0.0464 16.2760 -0.7922 -2.2733 4.3166 14.2851 0.0000 0.0000 0.0000 -7.9731 -9.5910 -49.6477 10.0953 17.4631 59.8065 1.0846 -9.3841 -18.7607 1.2451 -7.0752 -19.9382 0.0000 0.0000 0.0000 19.1593 2.1487 -51.4656 -9.6923 -17.2331 58.4548 -0.7372 9.0246 -15.6282 -0.0512 1.4606 -4.0170 3.0188 -1.8204 9.7442 3.0053 -1.8923 -0.3678 1.7265 -0.9731 -5.8559 3.7014 -0.6609 -7.3206 -5.8357 -0.6486 10.9277 -2.4428 -0.5072 4.4324 -0.0000 -0.0000 0.0000 -86.7048 -19.7474 44.4744 137.1202 -49.6865 -99.3910 -0.0000 -0.0000 25.5802 -1.0731 30.2782 -0.5411 -7.1250 0.0000 -0.0000 -34.9508 56.6111 -10.8641 -0.0000 -0.0000 0.0000 86.8711 14.4098 36.8092 -142.4664 46.5388 -103.3738 0.0000 0.0000 46.1705 17.3605 -2.1223 -0.6633 7.1250 -0.0000 -0.0000 33.3528 -30.5095 14.0590
-0.0344 16.2179 -0.8011 -2.1404 4.4887 14.3693 0.0000 0.0000 0.0000 -8.0253 -9.6844 -50.2702 10.3610 17.6079 60.6883 1.1093 -9.7333 -19.0062 1.2002 -6.9510 -19.5703 0.0000 0.0000 0.0000 18.9510 1.7552 -52.1960 -9.9816 -17.3995 59.4270 -0.7402 9.5997 -15.7660 -0.0319 1.1526 -3.1686 2.9789 -1.8636 9.7803 2.9254 -1.9574 -0.3600 1.6758 -1.0051 -5.8690 3.6408 -0.7199 -7.4294 -5.7619 -0.7321 10.9281 -2.4156 -0.5479 4.4473 -0.0000 0.0000 0.0000 -86.8729 -20.1794 44.5122 137.5778 -49.4413 -99.7393 -0.0000 -0.0000 25.8060 -1.2851 30.2956 -0.6484 -7.1250 0.0000 -0.0000 -35.1654 56.5818 -10.9171 -0.0000 0.0000 0.0000 87.1887 14.9021 37.0659 -143.1758 46.0717 -103.8867 0.0000 0.0000 46.2593 18.2669 -2.2158 -0.7312 7.1250 -0.0000 -0.0000 33.9673 -30.5060 14.4324
-0.0249 16.1550 -0.8116 -2.0612 4.6801 14.4090 0.0000 0.0000 0.0000 -8.0090 -9.7566 -50.8791 10.6352 17.7519 61.5912 1.1331 -10.0809 -19.2444 1.1757 -6.8822 -19.3668 0.0000 0.0000 0.0000 18.8134 1.3614 -52.9015 -10.2733 -17.5607 60.3980 -0.7472 10.1180 -15.9413 -0.0253 1.0263 -2.8211 2.9683 -1.9001 9.8987 2.8682 -2.0041 -0.3648 1.6336 -1.0286 -5.9423 3.5814 -0.7738 -7.4648 -5.7089 -0.8069 10.8699 -2.3934 -0.5840 4.4325 -0.0000 0.0000 0.0000 -87.0323 -20.5516 44.5761 137.9922 -49.2155 -100.0535 -0.0000 -0.0000 26.0242 -1.3956 30.3741 -0.7058 -7.1250 0.0000 -0.0000 -35.3369 56.6234 -11.0174 -0.0000 0.0000 0.0000 87.4975 15.3856 37.1440 -143.8486 45.6170 -104.3694 0.0000 0.0000 46.6210 19.2876 -2.1318 -0.7458 7.1250 -0.0000 -0.0000 34.5852 -30.3311 14.9975
-0.0178 16.0910 -0.8222 -1.9737 4.8165 14.4367 0.0000 0.0000 0.0000 -8.0098 -9.7850 -51.4959 10.9210 17.8962 62.5247 1.1663 -10.3791 -19.5500 1.1702 -6.8665 -19.3204 0.0000 0.0000 0.0000 18.6580 1.0547 -53.5802 -10.5655 -17.7158 61.3621 -0.7521 10.5397 -16.0838 -0.0226 0.9700 -2.6663 2.8969 -1.9134 10.0299 2.8051 -2.0266 -0.3821 1.6165 -1.0385 -6.0343 3.5543 -0.8328 -7.5112 -5.6755 -0.8895 10.8275 -2.3832 -0.6241 4.4237 -0.0000 0.0000 0.0000 -87.1513 -20.8637 44.6912 138.3679 -49.0077 -100.3376 -0.0000 -0.0000 26.1571 -1.5200 30.4180 -0.7697 -7.1250 0.0000 -0.0000 -35.4917 56.6337 -11.0839 -0.0000 0.0000 0.0000 87.8298 15.8350 37.2001 -144.4563 45.1965 -104.8021 0.0000 0.0000 47.1211 20.3649 -2.0146 -0.7476 7.1250 -0.0000 -0.0000 35.2143 -30.1153 15.6346
-0.0116 16.0198 -0.8391 -2.0700 4.9348 14.5616 0.0000 0.0000 0.0000 -7.7661 -9.7736 -52.3481 11.2263 18.0441 63.5144 1.1884 -10.6887 -19.7680 1.1452 -6.7955 -19.1109 0.0000 0.0000 0.0000 18.6737 0.9518 -54.3637 -10.8520 -17.8619 62.2999 -0.7403 10.9835 -16.0865 -0.0050 0.4579 -1.2583 2.8967 -1.9392 10.1571 2.8567 -2.0497 -0.4251 1.6812 -1.0492 -6.1497 3.5256 -0.8554 -7.5854 -5.6991 -0.9200 10.7084 -2.3868 -0.6419 4.3984 -0.0000 0.0000 0.0000 -87.3289 -21.1784 44.7052 138.6736 -48.8364 -100.5681 -0.0000 -0.0000 26.3246 -1.6385 30.4742 -0.8311 -7.1250 0.0000 -0.0000 -35.6519 56.6552 -11.1628 -0.0000 0.0000 0.0000 88.1212 16.3193 37.4319 -144.8750 44.9012 -105.0985 0.0000 0.0000 47.4307 21.0718 -2.0435 -0.7872 7.1250 -0.0000 -0.0000 35.6565 -30.0623 15.9876
